<svg width="20" height="20" viewBox="0 0 20 20" fill="none" xmlns="http://www.w3.org/2000/svg">
<g clip-path="url(#clip0_3_2509)">
<path d="M3 0.333374H17V19.6667H3V0.333374Z" fill="#FD882F"/>
<path d="M2 0H18V0.666667H2V0Z" fill="#FD882F"/>
<path d="M2 1.33337H18V2.00004H2V1.33337Z" fill="#FD882F"/>
<path d="M2 7.33337H18V8.00004H2V7.33337Z" fill="#FD882F"/>
<path d="M2 13.3334H18V14H2V13.3334Z" fill="#FD882F"/>
<path d="M2.33337 19.6667H1.00004L0.333374 17.3334H3.00004L2.33337 19.6667Z" fill="#DEE1E3"/>
<path d="M3.00004 13C3.00021 12.7624 2.93559 12.5293 2.81303 12.3257C2.69129 12.1276 2.69031 11.8781 2.81043 11.679C3.02869 11.3154 3.06027 10.8696 2.89571 10.479C2.731 10.0882 2.38969 9.79963 1.9771 9.70198C1.57996 9.60774 1.1615 9.70035 0.84119 9.95328C0.520878 10.2062 0.333703 10.5918 0.333378 11C0.333215 11.2375 0.397831 11.4704 0.520064 11.674C0.641646 11.8743 0.641646 12.1256 0.520064 12.326C0.270878 12.7409 0.270878 13.2594 0.520064 13.6743C0.641646 13.8724 0.642785 14.1219 0.522668 14.321C0.304406 14.6846 0.272831 15.1304 0.437382 15.521C0.602095 15.9118 0.943404 16.2004 1.356 16.298C1.7533 16.3924 2.17176 16.2998 2.49223 16.0469C2.81254 15.7939 2.99972 15.4082 3.00004 15C3.00021 14.7625 2.93559 14.5296 2.81336 14.326C2.69178 14.1256 2.69178 13.8743 2.81336 13.674C2.93559 13.4704 3.00021 13.2375 3.00004 13Z" fill="#88B337"/>
<path d="M1.33337 11H2.00004V17.3333H1.33337V11Z" fill="#A3603E"/>
<path d="M19 19.6667H17.6667L17 17.3334H19.6667L19 19.6667Z" fill="#DEE1E3"/>
<path d="M19.6667 13C19.6668 12.7624 19.6022 12.5293 19.4797 12.3257C19.3579 12.1276 19.3569 11.8781 19.4771 11.679C19.6953 11.3154 19.7269 10.8696 19.5623 10.479C19.3976 10.0882 19.0563 9.79963 18.6437 9.70198C18.2466 9.60774 17.8281 9.70035 17.5078 9.95328C17.1875 10.2062 17.0003 10.5918 17 11C16.9998 11.2375 17.0645 11.4704 17.1867 11.674C17.3083 11.8743 17.3083 12.1256 17.1867 12.326C16.9375 12.7409 16.9375 13.2594 17.1867 13.6743C17.3083 13.8724 17.3094 14.1219 17.1893 14.321C16.971 14.6846 16.9395 15.1304 17.104 15.521C17.2687 15.9118 17.61 16.2004 18.0226 16.298C18.4199 16.3924 18.8384 16.2998 19.1589 16.0469C19.4792 15.7939 19.6663 15.4082 19.6667 15C19.6668 14.7625 19.6022 14.5296 19.48 14.326C19.3584 14.1256 19.3584 13.8743 19.48 13.674C19.6022 13.4704 19.6668 13.2375 19.6667 13Z" fill="#88B337"/>
<path d="M18 11H18.6667V17.3333H18V11Z" fill="#A3603E"/>
<path d="M3 4H4V4.66667H3V4Z" fill="#EF701B"/>
<path d="M8 5H9V5.66667H8V5Z" fill="#EF701B"/>
<path d="M16 6H17V6.66667H16V6Z" fill="#EF701B"/>
<path d="M11.6666 3.33337H12.3333V4.00004H11.6666V3.33337Z" fill="#EF701B"/>
<path d="M12 9.33337H13V10H12V9.33337Z" fill="#EF701B"/>
<path d="M3.66663 11.6667H4.33329V12.3334H3.66663V11.6667Z" fill="#EF701B"/>
<path d="M11.3334 12.6667H12V13.3334H11.3334V12.6667Z" fill="#EF701B"/>
<path d="M16 15.3334H16.6667V16H16V15.3334Z" fill="#EF701B"/>
<path d="M8 17.3334H8.66667V18H8V17.3334Z" fill="#EF701B"/>
<path d="M4.33337 6H5.33337V6.66667H4.33337V6Z" fill="#EF701B"/>
<path d="M5 3H7V6.33333H5V3Z" fill="#A12A2A"/>
<path d="M5 3H7V4.66667H5V3Z" fill="#DEE1E3"/>
<path d="M5 3H7V3.66667H5V3Z" fill="#C0C3C4"/>
<path d="M9 3H11V6.33333H9V3Z" fill="#A12A2A"/>
<path d="M9 3H11V4.66667H9V3Z" fill="#DEE1E3"/>
<path d="M9 3H11V3.66667H9V3Z" fill="#C0C3C4"/>
<path d="M13 3H15V6.33333H13V3Z" fill="#A12A2A"/>
<path d="M13 3H15V4.66667H13V3Z" fill="#DEE1E3"/>
<path d="M13 3H15V3.66667H13V3Z" fill="#C0C3C4"/>
<path d="M5 9H7V12.3333H5V9Z" fill="#A12A2A"/>
<path d="M5 9H7V10.6667H5V9Z" fill="#DEE1E3"/>
<path d="M5 9H7V9.66667H5V9Z" fill="#C0C3C4"/>
<path d="M9 9H11V12.3333H9V9Z" fill="#A12A2A"/>
<path d="M9 9H11V10.6667H9V9Z" fill="#DEE1E3"/>
<path d="M9 9H11V9.66667H9V9Z" fill="#C0C3C4"/>
<path d="M13 9H15V12.3333H13V9Z" fill="#A12A2A"/>
<path d="M13 9H15V10.6667H13V9Z" fill="#DEE1E3"/>
<path d="M13 9H15V9.66667H13V9Z" fill="#C0C3C4"/>
<path d="M5 15H7V18.3333H5V15Z" fill="#A12A2A"/>
<path d="M5 15H7V16.6667H5V15Z" fill="#DEE1E3"/>
<path d="M5 15H7V15.6667H5V15Z" fill="#C0C3C4"/>
<path d="M9 15H11V18.3333H9V15Z" fill="#A12A2A"/>
<path d="M9 15H11V16.6667H9V15Z" fill="#DEE1E3"/>
<path d="M9 15H11V15.6667H9V15Z" fill="#C0C3C4"/>
<path d="M13 15H15V18.3333H13V15Z" fill="#A12A2A"/>
<path d="M13 15H15V15.6667H13V15Z" fill="#912626"/>
<path d="M12.3334 18.3334H15.6667V19.6667H12.3334V18.3334Z" fill="#FF9747"/>
<path d="M0 19.3334H20V20H0V19.3334Z" fill="#C0C2C4"/>
<path d="M3 0.666626H17V1.33329H3V0.666626Z" fill="#EF701B"/>
<path d="M3 2H17V2.66667H3V2Z" fill="#EF701B"/>
<path d="M3 8H17V8.66667H3V8Z" fill="#EF701B"/>
<path d="M3 14H17V14.6667H3V14Z" fill="#EF701B"/>
</g>
<defs>
<clipPath id="clip0_3_2509">
<rect width="20" height="20" fill="white"/>
</clipPath>
</defs>
</svg>
