<svg width="20" height="20" viewBox="0 0 20 20" fill="none" xmlns="http://www.w3.org/2000/svg">
<g clip-path="url(#clip0_3_2601)">
<path d="M16.252 0H1.76471V20H16.252C17.3456 20 18.2353 19.1119 18.2353 18.0203V1.97969C18.2353 0.888078 17.3456 0 16.252 0Z" fill="#B5DBFF"/>
<path d="M8.82353 0L9.70589 9.55588L8.82353 20H1.76471V0H8.82353Z" fill="#4BB9EC"/>
<path d="M15.8824 1.97961V18.0204C15.8824 19.1118 14.9824 20 13.8761 20H8.82355V0H13.8761C14.9824 0 15.8824 0.888235 15.8824 1.97961Z" fill="#1982BF"/>
<path d="M8.82355 13.5294H11.7647V14.7059H8.82355V13.5294Z" fill="#D5E8FE"/>
<path d="M5.88239 13.5294H8.82356V14.7059H5.88239V13.5294Z" fill="#EDF5FF"/>
<path d="M8.82355 15.8823H10.5883V17.0588H8.82355V15.8823Z" fill="#D5E8FE"/>
<path d="M7.05884 15.8823H8.82354V17.0588H7.05884V15.8823Z" fill="#EDF5FF"/>
<path d="M8.82356 3.52938V2.35291C6.22866 2.35291 4.11768 4.46389 4.11768 7.05879C4.11768 9.65369 6.22866 11.7647 8.82356 11.7647V10.5882C8.75846 10.5882 8.50434 10.3921 8.26395 9.76114C8.04866 9.19565 7.90748 8.44702 7.86042 7.64702H8.82356V6.47055H7.86042C7.90748 5.67055 8.04866 4.92192 8.26395 4.35643C8.50434 3.72545 8.75846 3.52938 8.82356 3.52938ZM5.34356 7.64702H6.68238C6.73101 8.59291 6.89689 9.47291 7.1616 10.1717C6.2165 9.66506 5.52787 8.74075 5.34356 7.64702ZM6.68238 6.47055H5.34356C5.52787 5.37683 6.2165 4.45251 7.1616 3.94585C6.89689 4.64467 6.73101 5.52467 6.68238 6.47055Z" fill="#3B5A71"/>
<path d="M8.82355 2.35291V3.52938C8.88865 3.52938 9.14276 3.72545 9.38316 4.35643C9.59845 4.92192 9.73963 5.67055 9.78668 6.47055H8.82355V7.64702H9.78668C9.73963 8.44702 9.59845 9.19565 9.38316 9.76114C9.14276 10.3921 8.88865 10.5882 8.82355 10.5882V11.7647C11.4184 11.7647 13.5294 9.65369 13.5294 7.05879C13.5294 4.46389 11.4184 2.35291 8.82355 2.35291ZM12.3035 6.47055H10.9647C10.9161 5.52467 10.7502 4.64467 10.4855 3.94585C11.4306 4.45251 12.1192 5.37683 12.3035 6.47055ZM10.4855 10.1717C10.7502 9.47291 10.9161 8.59291 10.9647 7.64702H12.3035C12.1192 8.74075 11.4306 9.66506 10.4855 10.1717Z" fill="#2F374F"/>
</g>
<defs>
<clipPath id="clip0_3_2601">
<rect width="20" height="20" fill="white"/>
</clipPath>
</defs>
</svg>
