<svg width="20" height="20" viewBox="0 0 20 20" fill="none" xmlns="http://www.w3.org/2000/svg">
<g clip-path="url(#clip0_3_2640)">
<path d="M2.35294 2.35303H5.88235V5.88244H2.35294V2.35303Z" fill="#FFB01C"/>
<path d="M14.1176 2.35303H17.6471V5.88244H14.1176V2.35303Z" fill="#EF9B14"/>
<path d="M13.1231 5.16671L11.9749 5.42161L11.3212 2.47965C11.3043 2.40514 11.2396 2.35298 11.1631 2.35298H10V1.17651H11.1631C11.7953 1.17651 12.3325 1.60749 12.4694 2.22475L13.1231 5.16671Z" fill="#2F374F"/>
<path d="M10 1.17651V2.35298H8.83686C8.76039 2.35298 8.69569 2.40514 8.67882 2.47965L8.0251 5.42161L6.87686 5.16671L7.53059 2.22436C7.66745 1.60749 8.2047 1.17651 8.83686 1.17651H10Z" fill="#1766A0"/>
<path d="M10 4.70593L10.8525 12.353L10 18.8236H2.2949C1.02941 18.8236 0 17.7942 0 16.5287V7.00083C0 5.73534 1.02941 4.70593 2.2949 4.70593H10Z" fill="#64E1DC"/>
<path d="M20 7.00083V16.5287C20 17.7942 18.9706 18.8236 17.7051 18.8236H10V4.70593H17.7051C18.9706 4.70593 20 5.73534 20 7.00083Z" fill="#00B5BC"/>
<path d="M3.52942 4.70593H4.70589V18.8236H3.52942V4.70593Z" fill="#1766A0"/>
<path d="M15.2941 4.70593H16.4706V18.8236H15.2941V4.70593Z" fill="#2F374F"/>
<path d="M14.0502 10.5196L10 11.5663V7.92121L13.1671 7.10278L14.0502 10.5196Z" fill="#D5E8FE"/>
<path d="M10 7.92126V11.5664L9.49372 11.6973L8.61098 8.28009L10 7.92126Z" fill="#EDF5FF"/>
<path d="M7.84314 16.4706C8.92605 16.4706 9.80392 15.5928 9.80392 14.5099C9.80392 13.4269 8.92605 12.5491 7.84314 12.5491C6.76023 12.5491 5.88235 13.4269 5.88235 14.5099C5.88235 15.5928 6.76023 16.4706 7.84314 16.4706Z" fill="#FFDB00"/>
</g>
<defs>
<clipPath id="clip0_3_2640">
<rect width="20" height="20" fill="white"/>
</clipPath>
</defs>
</svg>
