<svg width="20" height="20" viewBox="0 0 20 20" fill="none" xmlns="http://www.w3.org/2000/svg">
<path d="M17.4945 8.41431L15.7263 10.1825L16.7353 14.1847L20.0001 10.9199L17.4945 8.41431Z" fill="#2F374F"/>
<path d="M9.14231 0.0622559L5.90967 3.29493L9.87687 4.33896L11.6479 2.56785L9.14231 0.0622559Z" fill="#3B5A71"/>
<path d="M1.22415 11.5997L0 12.8238L4.46357 15.7033L6.96889 11.2407L1.22415 11.5997Z" fill="#4BB9EC"/>
<path d="M4.25073 15.441L7.09926 19.9229L8.32337 18.6989L8.68241 12.9541L4.25073 15.441Z" fill="#1982BF"/>
<path d="M15.69 5.98608L11.1873 10.849L16.8286 19.9379L18.9965 17.7699L15.69 5.98608Z" fill="#1982BF"/>
<path d="M2.28737 1.0708L0.121826 3.23626L9.21346 8.87489L14.0768 4.37183L2.28737 1.0708Z" fill="#4BB9EC"/>
<path d="M19.3728 0.553671L4.2 15.7265L3.65942 15.1863L4.1811 13.8543C4.89531 12.2314 5.65165 11.0695 6.63437 10.0872L14.0032 2.71834C14.9604 1.76121 16.2104 0.948179 17.718 0.301691L17.8542 0.24342C18.368 0.0233303 18.9555 0.136328 19.3511 0.531623L19.3728 0.553671Z" fill="#EDF5FF"/>
<path d="M19.7783 2.16745C19.2109 3.49192 18.5243 4.879 17.3526 6.05032L9.97504 13.4278C8.81789 14.585 7.46114 15.2712 6.16737 15.8406L6.14493 15.85L4.83581 16.3622L4.19995 15.7264L19.3727 0.553589L19.4901 0.670917C19.8854 1.06621 19.9988 1.65364 19.7783 2.16745Z" fill="#D5E8FE"/>
</svg>
