<svg width="20" height="20" viewBox="0 0 20 20" fill="none" xmlns="http://www.w3.org/2000/svg">
<g clip-path="url(#clip0_3_267)">
<path d="M4.43125 9.91192C3.56766 10.7755 2.85879 11.781 2.33555 12.8845L0.128597 17.5391C-0.112888 18.0485 -0.00800483 18.6546 0.39055 19.0532L0.9468 19.6095C1.34539 20.0081 1.95153 20.1129 2.46082 19.8714L7.11543 17.6645C8.21899 17.1412 9.22446 16.4323 10.0881 15.5688L15.5688 10.0881C16.4323 9.2245 17.1412 8.21903 17.6645 7.11547L19.8714 2.46086C20.1129 1.95153 20.008 1.34539 19.6095 0.9468L19.0532 0.39055C18.6546 -0.00800483 18.0484 -0.112888 17.5391 0.128597L12.8845 2.33555C11.781 2.85879 10.7755 3.56766 9.91192 4.43125L4.43125 9.91192Z" fill="#FC5B5B"/>
<path d="M12.8285 7.17156C11.7871 6.13015 10.0986 6.13015 9.05723 7.17156L6.7002 9.52859L7.82219 12.1601L10.4714 13.2998L12.8284 10.9428C13.8698 9.9014 13.8698 8.21296 12.8285 7.17156Z" fill="#4D5E80"/>
<path d="M14.5209 6.33688L13.6632 5.47914C13.5175 5.33348 13.5375 5.09192 13.7052 4.97219L14.5753 4.35063C14.8405 4.16122 15.2037 4.19125 15.4342 4.42172L15.5784 4.56586C15.8088 4.79629 15.8389 5.15957 15.6495 5.42477L15.0279 6.29493C14.9082 6.4625 14.6666 6.4825 14.5209 6.33688Z" fill="#E3F5FF"/>
<path d="M5.47901 13.6632L6.33674 14.5209C6.48241 14.6666 6.46241 14.9081 6.29479 15.0279L5.42463 15.6494C5.15944 15.8388 4.7962 15.8088 4.56573 15.5783L4.42159 15.4342C4.19116 15.2037 4.16108 14.8404 4.35049 14.5752L4.97202 13.7051C5.09178 13.5376 5.33339 13.5176 5.47901 13.6632Z" fill="#E3F5FF"/>
<path d="M4.42719 5.36996L3.11031 5.37813C2.75383 5.38035 2.41129 5.23969 2.15922 4.98762L0.195508 3.02395C-0.0648438 2.76359 -0.0648438 2.34148 0.195508 2.08113L2.08113 0.195508C2.34148 -0.0648438 2.76359 -0.0648438 3.02395 0.195508L4.98766 2.15922C5.23973 2.41129 5.38035 2.75383 5.37816 3.11031L5.37 4.42719L4.42719 5.36996Z" fill="#FFD92E"/>
<path d="M15.5788 14.636L16.8957 14.6278C17.2522 14.6256 17.5947 14.7663 17.8468 15.0183L19.8047 16.9762C20.065 17.2366 20.065 17.6587 19.8047 17.919L17.919 19.8047C17.6587 20.065 17.2366 20.065 16.9762 19.8047L15.0183 17.8468C14.7663 17.5947 14.6256 17.2522 14.6278 16.8957L14.636 15.5788L15.5788 14.636Z" fill="#FFD92E"/>
<path d="M19.6094 0.946864L19.0532 0.390614C18.6824 0.0197936 18.1319 -0.0964173 17.6469 0.0836608C17.8237 0.148973 17.9885 0.251473 18.1277 0.390614L18.6839 0.946864C19.0825 1.34546 19.1873 1.95159 18.9459 2.46089L16.7389 7.1155C16.2157 8.21905 15.5068 9.22452 14.6432 10.0881L9.16253 15.5688C8.29894 16.4324 7.29347 17.1412 6.18992 17.6645L1.53531 19.8714C1.49988 19.8882 1.46386 19.903 1.42761 19.9164C1.75722 20.0382 2.12941 20.0286 2.46089 19.8714L7.1155 17.6645C8.21906 17.1413 9.22453 16.4324 10.0881 15.5688L15.5687 10.0881C16.4323 9.22452 17.1412 8.21905 17.6644 7.1155L19.8714 2.46089C20.1129 1.95159 20.008 1.34542 19.6094 0.946864Z" fill="#E64040"/>
<path d="M12.8284 7.17151C12.1895 6.5326 11.3071 6.28639 10.48 6.43143C11.0011 6.5228 11.5004 6.76905 11.9029 7.17151C12.9443 8.21291 12.9443 9.90135 11.9029 10.9428L9.82422 13.0214L10.4714 13.2997L12.8284 10.9427C13.8698 9.90135 13.8698 8.21291 12.8284 7.17151Z" fill="#3D4566"/>
<path d="M15.5784 4.56573L15.4342 4.42159C15.2038 4.19116 14.8405 4.16108 14.5753 4.35049L14.4942 4.40842C14.499 4.41292 14.504 4.41694 14.5087 4.42159L14.6528 4.56573C14.8832 4.79616 14.9133 5.15944 14.7239 5.42463L14.2593 6.0751L14.521 6.33678C14.6666 6.48245 14.9082 6.46245 15.0279 6.29483L15.6494 5.42467C15.8389 5.15944 15.8088 4.7962 15.5784 4.56573Z" fill="#C5E6F0"/>
<path d="M6.33684 14.5209L5.47911 13.6632C5.33344 13.5175 5.09188 13.5375 4.97215 13.7052L4.8152 13.9249L5.41125 14.5209C5.55692 14.6666 5.53692 14.9082 5.3693 15.0279L4.5802 15.5915C4.81114 15.8094 5.16485 15.835 5.42469 15.6494L6.29485 15.0279C6.46251 14.9082 6.4825 14.6666 6.33684 14.5209Z" fill="#C5E6F0"/>
<path d="M4.98737 2.159L3.02366 0.195287C2.76608 -0.0622907 2.35042 -0.0645954 2.08948 0.187475C2.09229 0.19017 2.09534 0.192514 2.09811 0.195287L4.06182 2.159C4.31389 2.41107 4.45452 2.75361 4.45233 3.11009L4.44417 4.42697L3.50135 5.36978H4.4269L5.36971 4.42697L5.37788 3.11009C5.38006 2.75361 5.23944 2.41107 4.98737 2.159Z" fill="#FCBE00"/>
<path d="M19.8047 16.9764L17.8468 15.0185C17.5947 14.7664 17.2522 14.6258 16.8957 14.628L16.0912 14.633C16.4034 14.6594 16.6979 14.7951 16.9212 15.0185L18.8792 16.9764C19.1395 17.2367 19.1395 17.6588 18.8792 17.9192L16.9935 19.8048C16.9908 19.8076 16.9877 19.8099 16.9849 19.8126C17.2458 20.0647 17.6615 20.0624 17.9191 19.8048L19.8047 17.9192C20.0651 17.6588 20.0651 17.2367 19.8047 16.9764Z" fill="#FCBE00"/>
<path d="M0.453247 3.28168L0.880083 3.70852L3.70848 0.880083L3.28165 0.453247L0.453247 3.28168Z" fill="#FCBE00"/>
<path d="M19.5525 16.7241L19.1257 16.2972L16.2972 19.1257L16.7241 19.5525L19.5525 16.7241Z" fill="#FCBE00"/>
<path d="M16.0739 16.015L16.015 16.0739C15.771 16.3179 15.3752 16.3179 15.1312 16.0739L3.93769 4.88049C3.69362 4.63643 3.69362 4.24068 3.93769 3.99662L3.99659 3.93771C4.24065 3.69361 4.6364 3.69361 4.8805 3.93771L16.0739 15.1312C16.318 15.3752 16.318 15.7709 16.0739 16.015Z" fill="#E3F5FF"/>
<path d="M16.0606 15.1178L4.89388 3.95104C4.64243 3.69959 4.23478 3.69959 3.98333 3.95104L3.97583 3.95853L15.1351 15.1178C15.3865 15.3692 15.3865 15.7769 15.1351 16.0283L15.1103 16.0531L15.1178 16.0606C15.3693 16.312 15.777 16.312 16.0284 16.0606L16.0606 16.0283C16.3121 15.7769 16.3121 15.3692 16.0606 15.1178Z" fill="#C5E6F0"/>
<path d="M6.70019 9.52856L6.22878 9.99997C5.70808 10.5207 5.70808 11.3649 6.22878 11.8856L8.11441 13.7712C8.63511 14.2919 9.47933 14.2919 10 13.7712L10.4714 13.2998L6.70019 9.52856Z" fill="#FFD92E"/>
<path d="M6.7002 9.52856L6.23743 9.99134L9.31825 13.0722C9.44399 13.1979 9.44399 13.4017 9.31825 13.5274L9.0745 13.7712C8.93387 13.9118 8.76954 14.0141 8.59446 14.0788C9.06762 14.2535 9.61997 14.1513 10 13.7712L10.4714 13.2998L6.7002 9.52856Z" fill="#FCBE00"/>
</g>
<defs>
<clipPath id="clip0_3_267">
<rect width="20" height="20" fill="white"/>
</clipPath>
</defs>
</svg>
