<svg width="24" height="24" viewBox="0 0 24 24" fill="none" xmlns="http://www.w3.org/2000/svg">
<path d="M14.4328 2.47802C14.4051 2.36538 14.3041 2.2862 14.1881 2.28613H9.84128C9.72518 2.28606 9.62404 2.36531 9.59626 2.47802L9.11655 4.41362H14.9101L14.4328 2.47802Z" fill="#F7BE56"/>
<path d="M10.2271 2.72949H10.7431V3.2455H10.2271V2.72949Z" fill="#3A556A"/>
<path d="M10.7298 3.23218H11.2458V3.74819H10.7298V3.23218Z" fill="#3A556A"/>
<path d="M11.2458 2.72949H11.7618V3.2455H11.2458V2.72949Z" fill="#3A556A"/>
<path d="M11.7485 3.23218H12.2645V3.74819H11.7485V3.23218Z" fill="#3A556A"/>
<path d="M12.2649 2.72949H12.7809V3.2455H12.2649V2.72949Z" fill="#3A556A"/>
<path d="M12.7675 3.23218H13.2835V3.74819H12.7675V3.23218Z" fill="#3A556A"/>
<path d="M13.2835 2.72949H13.7995V3.2455H13.2835V2.72949Z" fill="#3A556A"/>
<path d="M20.1542 16.8864L21.9181 16.8759C22.2543 16.8739 22.5286 17.1448 22.5306 17.4811L22.5515 20.9839C22.5535 21.3202 22.2825 21.5944 21.9463 21.5964L20.1823 21.6069C19.8461 21.6089 19.5719 21.338 19.5698 21.0017L19.5489 17.4989C19.5469 17.1627 19.8178 16.8884 20.1542 16.8864Z" fill="#2F4859"/>
<path d="M2.20209 16.9932L3.96603 16.9827C4.30228 16.9807 4.57653 17.2517 4.57854 17.5879L4.59946 21.0907C4.60147 21.427 4.33047 21.7012 3.99423 21.7032L2.23028 21.7138C1.89404 21.7158 1.61979 21.4448 1.61778 21.1085L1.59686 17.6057C1.59485 17.2695 1.86584 16.9952 2.20209 16.9932Z" fill="#2F4859"/>
<path d="M22.1595 8.35509C22.0121 8.36894 21.8999 8.4935 21.9015 8.64153C21.9376 8.93033 21.7527 9.20069 21.4704 9.27163L21.0315 9.27405L21.257 9.93158C21.257 9.93158 24.0828 9.91482 23.9981 8.98657C23.9323 8.26531 22.706 8.30265 22.1595 8.35509Z" fill="#2F4859"/>
<path d="M1.84049 8.35509C1.9879 8.36894 2.10005 8.4935 2.09853 8.64153C2.06237 8.93033 2.24733 9.20069 2.52961 9.27163L2.96852 9.27405L2.74304 9.93158C2.74304 9.93158 -0.0827783 9.91482 0.0018722 8.98657C0.0676807 8.26531 1.294 8.30265 1.84049 8.35509Z" fill="#2F4859"/>
<path d="M23.3684 13.8655C23.3155 13.1752 23.116 12.5043 22.7832 11.8973L21.5942 9.71329C21.5942 9.71329 19.4773 4.94675 18.596 4.56741C17.7442 4.20076 12.3085 4.11922 11.9462 4.1134H11.9267C11.5662 4.12269 6.13016 4.2703 5.28276 4.64694C4.40626 5.03687 2.34728 9.82807 2.34728 9.82807L1.18227 12.0265C0.856549 12.6372 0.664942 13.3104 0.620331 14.0012C0.538451 15.5269 0.702834 17.0558 1.10724 18.5293C1.2976 19.2241 1.93221 19.7034 2.65257 19.6966L12.0192 19.6412H12.0387L21.404 19.5853C22.1245 19.5834 22.7533 19.0965 22.9356 18.3995C23.3221 16.921 23.4683 15.3902 23.3684 13.8655Z" fill="#FCD462"/>
<path d="M7.44613 16.6988L16.5722 16.644C16.7355 16.6431 16.8686 16.7747 16.8696 16.938L16.879 18.4919C16.8799 18.6552 16.7483 18.7884 16.5851 18.7893L7.45901 18.8441C7.29567 18.845 7.16253 18.7134 7.16156 18.5501L7.1522 16.9962C7.15123 16.833 7.28285 16.6997 7.44613 16.6988Z" fill="#3A556A"/>
<path d="M18.7666 5.2867C18.6715 5.07916 18.4661 4.94429 18.2379 4.93957L11.9976 4.81177H11.978L5.73947 5.01425C5.51163 5.02208 5.30825 5.15924 5.21557 5.36754L3.42558 9.39398L12.0051 9.34258H12.0247L20.6042 9.29325L18.7666 5.2867Z" fill="#2F4859"/>
<path d="M20.7982 16.3819C20.1968 16.3861 19.7127 16.877 19.7168 17.4784C19.721 18.0798 20.2119 18.5639 20.8133 18.5597C21.4142 18.5555 21.8982 18.0653 21.8946 17.4643C21.891 16.8629 21.4006 16.3783 20.7992 16.3819C20.7989 16.3819 20.7985 16.3819 20.7982 16.3819Z" fill="#EBF0F3"/>
<path d="M3.30913 16.486C2.70757 16.4901 2.22308 16.9809 2.2271 17.5825C2.23112 18.184 2.72198 18.6685 3.32354 18.6645C3.92496 18.6605 4.40938 18.1698 4.40557 17.5684C4.40196 16.967 3.91159 16.4824 3.31017 16.486C3.30982 16.4861 3.30947 16.486 3.30913 16.486Z" fill="#EBF0F3"/>
<path d="M20.4405 12.0947C18.6381 12.3191 18.179 13.8275 18.0597 14.5491C18.031 14.7275 18.1525 14.8954 18.3309 14.924C18.351 14.9273 18.3714 14.9286 18.3917 14.9281C19.1677 14.9133 19.9422 14.8532 20.7111 14.7482C22.0203 14.5563 22.8236 11.798 20.4405 12.0947Z" fill="#E1E6E9"/>
<path d="M20.596 12.6587C20.2146 12.6937 19.9337 13.0312 19.9686 13.4126C20.0036 13.794 20.3411 14.0749 20.7225 14.0399C21.1039 14.0049 21.3848 13.6674 21.3499 13.286C21.3499 13.2857 21.3498 13.2854 21.3498 13.2851C21.3143 12.9041 20.977 12.6238 20.596 12.6587Z" fill="#BDBEC1"/>
<path d="M19.1644 13.3954C18.8746 13.4222 18.6613 13.6788 18.6881 13.9686C18.715 14.2584 18.9716 14.4717 19.2614 14.4448C19.5512 14.418 19.7644 14.1615 19.7376 13.8716C19.711 13.582 19.4547 13.3687 19.1651 13.3953C19.1649 13.3953 19.1647 13.3953 19.1644 13.3954Z" fill="#BDBEC1"/>
<path d="M3.5894 12.0947C5.39172 12.3191 5.85086 13.8275 5.9698 14.5491C5.99841 14.7275 5.87697 14.8954 5.6986 14.924C5.67851 14.9273 5.65814 14.9286 5.63778 14.9281C4.86179 14.9133 4.08733 14.8532 3.31841 14.7482C2.00945 14.5563 1.20658 11.798 3.5894 12.0947Z" fill="#E1E6E9"/>
<path d="M3.43382 12.6587C3.81523 12.6937 4.09613 13.0312 4.06115 13.4126C4.02616 13.794 3.68867 14.0749 3.30726 14.0399C2.92585 14.0049 2.64495 13.6674 2.67993 13.286C2.67993 13.2857 2.68 13.2854 2.68 13.2851C2.71547 12.9041 3.05275 12.6238 3.43382 12.6587Z" fill="#BDBEC1"/>
<path d="M4.8654 13.3955C5.15516 13.4224 5.36824 13.6792 5.3413 13.969C5.31435 14.2588 5.05756 14.4719 4.76772 14.4449C4.4781 14.418 4.26509 14.1614 4.29182 13.8718C4.31856 13.5819 4.57522 13.3687 4.86505 13.3955C4.86505 13.3955 4.86526 13.3954 4.8654 13.3955Z" fill="#BDBEC1"/>
<path d="M6.42069 12.9452L7.3835 14.9284H16.4297L17.6078 12.9452H6.42069Z" fill="#3A556A"/>
</svg>
