<svg width="20" height="20" viewBox="0 0 20 20" fill="none" xmlns="http://www.w3.org/2000/svg">
<path d="M17.5312 4.28125V9.3125C17.5312 13.875 14.4375 17.875 10 19C5.5625 17.875 2.46875 13.875 2.46875 9.3125V4.28125C5.9375 3.875 7.9375 2.5625 10 1C12.0625 2.5625 14.0625 3.875 17.5312 4.28125Z" fill="#FFD15D"/>
<path d="M10 17C6.65625 15.9375 4.375 12.8438 4.375 9.3125V5.90625C6.71875 5.40625 8.4375 4.4375 10 3.375C11.5938 4.46875 13.2812 5.40625 15.625 5.90625V9.3125C15.625 12.8438 13.3438 15.9375 10 17Z" fill="#F5B92D"/>
<path d="M8.75 13.0625L6.875 11.2188L7.84375 10.2813L8.75 11.1875L12.1563 7.78125L13.125 8.71875L8.75 13.0625Z" fill="white"/>
</svg>
