<svg width="20" height="20" viewBox="0 0 20 20" fill="none" xmlns="http://www.w3.org/2000/svg">
<g clip-path="url(#clip0_3_2575)">
<path d="M3.96488 15.0315L0.992265 12.6934C0.829883 12.5712 0.776719 12.3556 0.874179 12.2145C1.35062 11.5245 2.26843 11.2888 3.17023 11.625L5.85866 13.15L3.96488 15.0315Z" fill="#FF2C5C"/>
<path d="M4.96246 16.029L7.30672 19.0078C7.42886 19.1702 7.64449 19.2233 7.78562 19.1259L7.96285 19.0035C8.54648 18.6005 8.74578 17.8242 8.46148 17.0614L6.85012 14.1414L4.96246 16.029Z" fill="#FF2C5C"/>
<path d="M4.13829 12.174L2.45642 13.8449L3.96486 15.0314L5.85868 13.1498L4.13829 12.174Z" fill="#E62753"/>
<path d="M4.7702 5.87426C4.39688 5.50094 4.36735 4.9061 4.70087 4.49684C5.1779 3.91145 5.77555 3.25962 6.13407 2.9011C6.62454 2.41064 6.66739 2.46923 7.19141 2.14802C7.26856 2.10071 7.36813 2.11212 7.43211 2.1761L8.4684 3.21239C8.53238 3.27638 8.54375 3.37595 8.49649 3.45309C8.17528 3.97712 8.23387 4.01993 7.7434 4.5104C7.38489 4.86891 6.73305 5.46657 6.14766 5.9436C5.73837 6.27707 5.14348 6.24758 4.7702 5.87426Z" fill="#C3D3DB"/>
<path d="M14.1258 15.2299C13.7525 14.8565 13.7229 14.2617 14.0565 13.8524C14.5335 13.267 15.1311 12.6152 15.4897 12.2567C15.9801 11.7662 16.0229 11.8248 16.547 11.5036C16.6241 11.4563 16.7237 11.4677 16.7877 11.5317L17.824 12.568C17.888 12.632 17.8993 12.7315 17.8521 12.8087C17.5309 13.3327 17.5895 13.3755 17.099 13.866C16.7405 14.2245 16.0886 14.8222 15.5033 15.2992C15.094 15.6327 14.4991 15.6032 14.1258 15.2299Z" fill="#C3D3DB"/>
<path d="M9.45013 9.40783L13.1176 5.74038L1.75659 2.17085C1.52264 2.11113 1.29007 2.168 1.1353 2.32277L0.175459 3.28261C-0.145985 3.60405 -0.00801672 4.19331 0.445771 4.43698L9.45013 9.40783Z" fill="#FF2C5C"/>
<path d="M10.5505 4.93384L7.27649 8.20789L9.45012 9.40781L13.1176 5.74036L10.5505 4.93384Z" fill="#E62753"/>
<path d="M10.5922 10.5499L14.2596 6.88245L17.8291 18.2434C17.8889 18.4774 17.832 18.71 17.6772 18.8647L16.7174 19.8246C16.3959 20.146 15.8067 20.008 15.563 19.5543L10.5922 10.5499Z" fill="#FF2C5C"/>
<path d="M17.5144 5.34073L11.3532 11.5019C10.3194 12.5358 9.22028 13.5001 8.06958 14.3828L5.13818 16.6315C4.45955 17.1522 3.65244 17.2151 3.21866 16.7813C2.78487 16.3475 2.84784 15.5404 3.36846 14.8618L5.61721 11.9304C6.49994 10.7797 7.46419 9.68064 8.49806 8.64678L14.6593 2.48558C15.5016 1.64332 16.4689 0.94156 17.4908 0.459764C18.3709 0.0448817 19.3063 -0.21504 19.7607 0.239334C20.215 0.693709 19.9551 1.62914 19.5402 2.50917C19.0585 3.53116 18.3567 4.49847 17.5144 5.34073Z" fill="#E0F3FC"/>
<path d="M19.7606 0.239375C19.6007 0.079453 19.381 0.00828124 19.1253 0.000976562C19.1437 0.474179 18.9385 1.07433 18.6667 1.65074C18.185 2.67265 17.4832 3.63999 16.6409 4.48226L10.4797 10.6435C9.44589 11.6773 8.34679 12.6416 7.19609 13.5243L4.26469 15.773C3.83305 16.1041 3.34954 16.2498 2.94305 16.2006C2.9736 16.4262 3.06466 16.6273 3.21864 16.7813C3.65243 17.2151 4.45954 17.1521 5.13817 16.6315L8.06957 14.3827C9.22027 13.5 10.3193 12.5358 11.3532 11.5019L17.5144 5.34073C18.3567 4.49847 19.0585 3.53113 19.5402 2.50921C19.9551 1.62918 20.215 0.693749 19.7606 0.239375Z" fill="#C3D3DB"/>
<path d="M18.025 4.16078L17.8146 4.37117C17.6192 4.56656 15.4335 2.38086 15.6289 2.18547L15.8393 1.97508C15.9719 1.84246 16.1665 1.80067 16.325 1.87078C17.1148 2.22016 17.7799 2.88524 18.1293 3.67504C18.1993 3.83352 18.1576 4.02816 18.025 4.16078Z" fill="#51C4F5"/>
<path d="M3.88439 16.4086C3.80943 16.4086 3.73443 16.38 3.67724 16.3228C3.56283 16.2084 3.56283 16.0229 3.67724 15.9085L6.23567 13.3501C6.35009 13.2357 6.53559 13.2357 6.64997 13.3501C6.76438 13.4645 6.76438 13.65 6.64997 13.7644L4.09154 16.3228C4.03435 16.38 3.95939 16.4086 3.88439 16.4086Z" fill="#E62753"/>
</g>
<defs>
<clipPath id="clip0_3_2575">
<rect width="20" height="20" fill="white"/>
</clipPath>
</defs>
</svg>
