<svg width="56" height="16" viewBox="0 0 56 16" fill="none" xmlns="http://www.w3.org/2000/svg">
<line x1="2" y1="7.5" x2="54" y2="7.5" stroke="#DDDDDD"/>
<circle cx="2.5" cy="7.5" r="2.5" fill="#5BB08B"/>
<circle cx="53.5" cy="7.5" r="2.5" fill="#5BB08B"/>
<path d="M28.9133 13.3666L30.2533 10.2533L30.5467 9.55996C30.6 9.45329 30.74 9.35996 30.86 9.35996L32.9 9.35996C33.54 9.35996 34.3 8.88662 34.5933 8.31329C34.6933 8.11329 34.6933 7.87329 34.5933 7.67329C34.3 7.10663 33.5333 6.63329 32.8933 6.63329L30.8533 6.63329C30.7333 6.63329 30.5933 6.53996 30.54 6.43329L28.9067 2.63329C28.7333 2.21329 28.2067 1.87329 27.7533 1.87329L26.8733 1.87329C26.3067 1.87329 26.0267 2.29996 26.2533 2.82662L27.6933 6.16662C27.8067 6.42662 27.6667 6.63996 27.38 6.63996L26.64 6.63996L25.44 6.63996C25.2867 6.63996 25.0667 6.55329 24.96 6.44662L23.4067 4.89996C23.2467 4.73996 22.9333 4.66662 22.7067 4.73996L21.8 5.03996C21.4067 5.15996 21.22 5.60662 21.4067 5.97329L22.74 7.55996C22.9467 7.79996 22.9467 8.19329 22.74 8.43329L21.4067 10.02C21.2267 10.3866 21.4067 10.8333 21.8 10.9666L22.7067 11.2666C22.9267 11.34 23.2467 11.2666 23.4067 11.1066L24.96 9.55996C25.0667 9.44662 25.2867 9.35996 25.44 9.35996L27.38 9.35996C27.6667 9.35996 27.8 9.56662 27.6933 9.83329L26.2533 13.1733C26.0267 13.7 26.3067 14.1266 26.8733 14.1266L27.7533 14.1266C28.2067 14.1266 28.7333 13.7866 28.9133 13.3666Z" fill="#385B66"/>
</svg>
