<svg width="20" height="18" viewBox="0 0 20 18" fill="none" xmlns="http://www.w3.org/2000/svg">
<path fill-rule="evenodd" clip-rule="evenodd" d="M8.43804 2.9751C6.88114 1.38281 4.31916 1.38281 2.76226 2.9751C1.25405 4.51758 1.25405 6.98228 2.76225 8.52475L9.86142 15.7853C9.93753 15.8631 10.0628 15.8631 10.1389 15.7853L17.238 8.52476C18.7462 6.98228 18.7462 4.51758 17.238 2.9751C15.6811 1.38281 13.1192 1.38281 11.5623 2.9751L10.5364 4.02427C10.3953 4.16858 10.202 4.24993 10.0001 4.24993C9.79832 4.24993 9.605 4.16858 9.46389 4.02427L8.43804 2.9751ZM18.3106 1.92642C20.3887 4.05184 20.3887 7.44801 18.3106 9.57343L11.2114 16.8339C10.5469 17.5135 9.45341 17.5135 8.78891 16.8339L1.68974 9.57343C-0.388445 7.44801 -0.388441 4.05184 1.68975 1.92642C3.83504 -0.267629 7.36526 -0.267629 9.51055 1.92642L10.0001 2.42715L10.4897 1.92642C12.635 -0.267627 16.1653 -0.26763 18.3106 1.92642Z" fill="#22282F"/>
</svg>
