<svg width="24" height="24" viewBox="0 0 24 24" fill="none" xmlns="http://www.w3.org/2000/svg">
<g clip-path="url(#clip0_3_67)">
<path d="M22.3594 11.8125H22.125V18.8432H22.3594C23.264 18.8432 24 18.1073 24 17.2027V13.453C24 12.5484 23.264 11.8125 22.3594 11.8125Z" fill="#5BB08B"/>
<path d="M0 13.453V17.2027C0 18.1073 0.735984 18.8432 1.64062 18.8432H1.875V11.8125H1.64062C0.735984 11.8125 0 12.5484 0 13.453Z" fill="#5BB08B"/>
<path d="M18.1406 8.53125H5.85938C4.4355 8.53125 3.28125 9.6855 3.28125 11.1094V19.5469C3.28125 20.9707 4.4355 22.125 5.85938 22.125H13.6901L16.8074 23.9063C17.2762 24.1741 17.8594 23.8357 17.8594 23.2958V22.125H18.1406C19.5645 22.125 20.7188 20.9707 20.7188 19.5469V11.1094C20.7188 9.6855 19.5645 8.53125 18.1406 8.53125ZM8.01562 13.4531C8.01562 13.8414 7.70081 14.1562 7.3125 14.1562C6.92419 14.1562 6.60938 13.8414 6.60938 13.4531C6.60938 12.29 7.55564 11.3438 8.71875 11.3438C9.88186 11.3438 10.8281 12.29 10.8281 13.4531C10.8281 13.8414 10.5133 14.1562 10.125 14.1562C9.73669 14.1562 9.42188 13.8414 9.42188 13.4531C9.42188 13.0654 9.10645 12.75 8.71875 12.75C8.33105 12.75 8.01562 13.0654 8.01562 13.4531ZM14.7587 18.169C13.9981 18.9296 12.999 19.3099 12 19.3099C11.001 19.3099 10.0019 18.9296 9.24131 18.169C8.96672 17.8945 8.96672 17.4493 9.24131 17.1747C9.51586 16.9001 9.96108 16.9001 10.2357 17.1747C11.2085 18.1475 12.7914 18.1475 13.7643 17.1747C14.0388 16.9001 14.484 16.9001 14.7586 17.1747C15.0332 17.4493 15.0332 17.8945 14.7587 18.169ZM16.6875 14.1562C16.2992 14.1562 15.9844 13.8414 15.9844 13.4531C15.9844 13.0654 15.669 12.75 15.2812 12.75C14.8935 12.75 14.5781 13.0654 14.5781 13.4531C14.5781 13.8414 14.2633 14.1562 13.875 14.1562C13.4867 14.1562 13.1719 13.8414 13.1719 13.4531C13.1719 12.29 14.1181 11.3438 15.2812 11.3438C16.4444 11.3438 17.3906 12.29 17.3906 13.4531C17.3906 13.8414 17.0758 14.1562 16.6875 14.1562Z" fill="#5BB08B"/>
<path d="M16.2187 5.71828H15.9843V4.09748C16.8027 3.80725 17.3905 3.02577 17.3905 2.1092C17.3905 0.946189 16.4443 0 15.2812 0C14.1181 0 13.1718 0.946189 13.1718 2.1092C13.1718 3.02577 13.7596 3.80725 14.578 4.09748V5.71828H9.42179V4.09748C10.2402 3.80725 10.828 3.02577 10.828 2.1092C10.828 0.946189 9.88177 0 8.71866 0C7.55555 0 6.60929 0.946189 6.60929 2.1092C6.60929 3.02577 7.19715 3.80725 8.01554 4.09748V5.71828H7.78116C6.86452 5.71828 6.08297 6.3061 5.79272 7.12442H18.2071C17.9169 6.3061 17.1353 5.71828 16.2187 5.71828Z" fill="#5BB08B"/>
</g>
<defs>
<clipPath id="clip0_3_67">
<rect width="24" height="24" fill="white"/>
</clipPath>
</defs>
</svg>
